<svg width="1246" height="966" 
  xmlns="http://www.w3.org/2000/svg">
  <g transform="translate(-19)" fill="none" fill-rule="evenodd">
    <path d="M1216.33 37C1241 37 1261 57 1261 81.67v423.66c0 24.67-20 44.67-44.67 44.67H666.67C642 550 622 530 622 505.33V81.67C622 57 642 37 666.67 37h549.66zm0-4H666.67c-26.868.028-48.642 21.802-48.67 48.67v423.66c.028 26.868 21.802 48.642 48.67 48.67h549.66c26.868-.028 48.642-21.802 48.67-48.67V81.67c-.028-26.868-21.802-48.642-48.67-48.67z" fill="#FFF" fill-rule="nonzero"/>
    <rect fill="#F5EBDD" fill-rule="nonzero" x="622" y="37" width="639" height="513" rx="44.67"/>
    <path d="M622 133h641" stroke="#FFF" stroke-width="4"/>
    <circle fill="#FFF" fill-rule="nonzero" cx="669" cy="84" r="17"/>
    <circle fill="#FFF" fill-rule="nonzero" cx="720.52" cy="84" r="17"/>
    <circle fill="#FFF" fill-rule="nonzero" cx="772.03" cy="84" r="17"/>
    <path d="M653.33 339C678 339 698 359 698 383.67v423.66C698 832 678 852 653.33 852H103.67C79 852 59 832 59 807.33V383.67C59 359 79 339 103.67 339h549.66zm0-4H103.67c-26.868.028-48.642 21.802-48.67 48.67v423.66c.028 26.868 21.802 48.642 48.67 48.67h549.66c26.868-.028 48.642-21.802 48.67-48.67V383.67c-.028-26.868-21.802-48.642-48.67-48.67z" fill="#FFF" fill-rule="nonzero"/>
    <rect fill="#FFE2E4" fill-rule="nonzero" x="59" y="339" width="639" height="513" rx="44.67"/>
    <path d="M59 435h641" stroke="#FFF" stroke-width="4"/>
    <circle fill="#FFF" fill-rule="nonzero" cx="106" cy="386" r="17"/>
    <circle fill="#FFF" fill-rule="nonzero" cx="157.52" cy="386" r="17"/>
    <circle fill="#FFF" fill-rule="nonzero" cx="209.03" cy="386" r="17"/>
    <path d="M530.43 369.6v-1.61l.48-.36-.47-.1c0-8.6-.73-34.14-9.08-53.6-7.42-17.29-17.66-25.28-24.77-22.23-7.11 3.05-8.38 16-1 33.26 4.12 9.62 10.61 18.91 16.86 26.57-12.59-11.93-29.78-26.72-45.3-34.86-21-11-37.33-10.67-41.86-2.05-4.53 8.62 4.5 22.27 25.48 33.28 13.65 7.17 32.29 12.48 48.13 16.09a107.21 107.21 0 00-25.31 2.14c-18.36 4.12-28.08 12.73-26.39 20.27 1.69 7.54 14.16 11.17 32.52 7.05 20.45-4.59 41.35-18.7 48.54-23.89l1.27.19c.52.49.83.76.83.76v-.64h.3l-.23-.27z" fill="#EC4A29" fill-rule="nonzero"/>
    <path fill="#3EC1F3" fill-rule="nonzero" d="M732.33 460.53l-.31-.3v.62z"/>
    <path fill="#EC4A29" fill-rule="nonzero" d="M708.36 484.75l-.25-48.19-24.6-24.35.49 97.14zM538.42 352.14l.82 162.09 24.6 24.35-1.07-211.04zM457.79 433.6l57.54 56.96-.58-114.51zM660.34 533.25l-.73-144.7L635 364.19l.98 193.67zM611.1 340.53l-24.6-24.35 1.24 246.07 22.17 21.94 2.41-2.43z"/>
    <path fill="#AA2A13" fill-rule="nonzero" d="M514.75 376.05l.58 114.51 23.91 23.67-.82-162.09zM580.2 309.94l-17.43 17.6 1.07 211.04 23.9 23.67-1.24-246.07zM635.98 557.86L635 364.19l-23.9-23.66 1.22 241.23zM684 509.35l-.49-97.14-23.9-23.66.73 144.7zM732.02 460.85v-.62l-23.91-23.67.25 48.19z"/>
    <path d="M618.15 348.02L495.96 471.45" stroke="#000" stroke-width="4" stroke-linejoin="round"/>
    <path fill="#AA2A13" fill-rule="nonzero" d="M451.447 440.002L586.53 303.545l36.692 36.323L488.14 476.325z"/>
    <path d="M550 524s13-43 5-50c-9.66-8.45-26 19-39.17 52-13.85 34.67-54 133-56 140 0 0-68.41-37.4-99-51-27-12-59.89-16.36-59.89-16.36l-4.18-25.11s19.53 7 36.27-2.79c16.74-9.79 20.93-27.91 15.35-55.81-3.31-16.53-3.19-37-6-55.25-11.14 1.88-27.46-1.95-27.46-1.95-22.33 25.11-46 30.69-46 30.69-15.35-16.74-43.26-16.74-47.44 7-4.63 26.25 27.9 33.48 27.9 33.48S256 567 242 605c-19.45 52.8-97.86 66.81-130 44-58 41-6.69 165.57 42 224 40 48 182 23 182 23s16 12 35 16c34 67 48 48 48 48s12 13 21-1c18 1 17-10 1-48 18 22 35.62 22.07 36 16 1-16-52-72-85-86-24.79-10.52-37-14-37-14l-5-81s106.12 58.28 156 31c64-35 90-207 90-207l-46-46z" fill="#EAA58B" fill-rule="nonzero"/>
    <path d="M242 605c14-38 7.32-76.12 7.32-76.12s-32.53-7.23-27.9-33.48c4.18-23.72 32.09-23.72 47.44-7 0 0 23.71-5.58 46-30.69 0 0 16.32 3.83 27.46 1.95-1.95-12.57-5.29-24.12-12.12-32.65-16.74-20.92-62.78-34.88-99.05-8.37-36.27 26.51-33.49 69.76-32.09 86.5 0 0-62.73-15.36-96.1 31.84-41 58 9 112 9 112C144.14 671.81 222.55 657.8 242 605z" fill="#30242A" fill-rule="nonzero"/>
    <path d="M351.75 774.37L350 746h.09l-8.37-138.16a272.27 272.27 0 00-28.1-7.07L309 696h-78l-29.63-48.15a113.14 113.14 0 01-33.57 10.47l44.56 110.44L229 810s38 2 72 7 54 10 54 10l-3.25-52.63z" fill="#007D81" fill-rule="nonzero"/>
    <path d="M551.49 526.48c-.82 2.61-1.66 5.15-2.49 7.52 0 0 25.5 29.5 9.5 67.5M457.49 665.11L447 692M445 915.66c-4.23-9.59-9.46-20.81-14.08-29M412.15 896.63c12 21.13 21.41 44.79 27.31 61.41M393.49 908.47c9 16.52 17.76 35.77 24.26 50.9" stroke="#BB7259" stroke-width="4" stroke-linecap="round"/>
    <path d="M353.5 786.5l-133-1" stroke="#724342" stroke-width="4" stroke-linecap="round"/>
    <path d="M180.18 849.65a39.58 39.58 0 00-38.4 7.36c4.05 5.73 8.14 11.1 12.22 16 11.06 13.27 29.91 21 51.4 25.13 5.45-20.38-5.4-41.67-25.22-48.49zM506 777c8.69-4.75 16.67-12 24-21.06a39 39 0 00-19.81-15.29c-20.75-7.13-43.48 4.27-50.77 25.46a41.3 41.3 0 00-2.07 17.21c18.15 2.14 35.39.93 48.65-6.32z" fill="#CA7358" fill-rule="nonzero"/>
    <path d="M167.79 658.32c-21.54 3.21-42.58.06-55.79-9.32-42.15 29.8-26.57 103.72 3.78 164.33l96.58-44.57-44.57-110.44zM242 605c-7.22 19.59-22.56 33.84-40.63 42.85L231 696h78l4.62-95.18c-7.68-1.51-12.68-2.18-12.68-2.18L299 587h-51.78a136.11 136.11 0 01-5.22 18zM360.82 615a181.22 181.22 0 00-19.1-7.11l8.37 138.16A414.74 414.74 0 00391 764.94L432 651c-22.48-12-53.29-28-71.18-36z" fill="#FFBE21" fill-rule="nonzero"/>
    <ellipse fill="#30242A" fill-rule="nonzero" transform="rotate(-30 73.655 657.93)" cx="73.655" cy="657.931" rx="56" ry="48.64"/>
    <path d="M87.5 603.5s7 42 41 55" stroke="#000" stroke-width="4" stroke-linecap="round" stroke-linejoin="round"/>
    <path d="M843.5 356.5l4 30" stroke="#F5EBDC" stroke-width="4" stroke-linecap="round"/>
    <path d="M1176 321s45-53-5-98c-30.56-27.5-67.27-19.84-67.27-19.84 1.39-16.74 4.18-60-32.09-86.5s-82.32-12.55-99.06 8.37c-16.74 20.92-12.55 60-18.13 87.9-5.58 27.9-1.4 46 15.34 55.81 16.74 9.81 36.28 2.79 36.28 2.79l-4.19 25.11S969 301 942 313c-30.6 13.6-99 51-99 51-2-7-13-121-18-158-3.81-28.19-17-63-27-56-9.7 6.79-6 29-6 29l-51 53s-25.21 181.73 35 231c44 36 159-22 159-22l-15 109h137.22s-25.73 6.84-79.22 31c-62 28-98 106-94 112s16 1 32-19c-14 52 0 48 9 47 9.15 13.16 21-3 21-3s16 15 41-55a121.41 121.41 0 0031-21s159-10 190-66 10-202-32-255z" fill="#A15842" fill-rule="nonzero"/>
    <circle fill="#30242A" fill-rule="nonzero" cx="968.15" cy="196.15" r="4.15"/>
    <path d="M228.5 808.5l-23-1M296.41 575.87a117.13 117.13 0 01-17.53-7.67" stroke="#BB7259" stroke-width="4" stroke-linecap="round"/>
    <path d="M197.54 504.87c.76 7.63 1.79 17.13 2.79 24.63" stroke="#000" stroke-width="4" stroke-linecap="round" stroke-linejoin="round"/>
    <path d="M291.46 785.42s-23.17-32.79-12.41-37.1c8.69-3.48 11.17 22.03 12.41 37.1zM292.19 786s11.39-26.3 18.54-22.09c5.77 3.4-9.45 15.22-18.54 22.09z" stroke="#724342" stroke-width="4" stroke-linecap="round" stroke-linejoin="round"/>
    <path d="M303.22 599.34L305 610M253.44 506.45l-12.45-6.92" stroke="#BB7259" stroke-width="4" stroke-linecap="round"/>
    <path d="M312.87 529.85c.71 13.12 14.19 14.21 17.49 5l-17.49-5z" stroke="#BB7259" stroke-width="4" stroke-linecap="round" stroke-linejoin="round"/>
    <circle fill="#724342" fill-rule="nonzero" cx="304.82" cy="502.65" r="4.15"/>
    <circle fill="#724342" fill-rule="nonzero" cx="335.68" cy="495.15" r="4.15"/>
    <path d="M325.06 507.72c1 2.65 1.94 5.56 1.64 6.65a6.06 6.06 0 01-2.43 3.19" stroke="#BB7259" stroke-width="4" stroke-linecap="round"/>
    <path d="M288.37 396.72l5.29 5.81 3.5 3.86c2.23 7.8-14 20.23-36.56 27.93-22.56 7.7-43 7.77-46 .23l.42-5.2.64-7.83c8.47 2 23.17.39 38.9-5 15.73-5.39 28.35-13 33.81-19.8z" fill="#FFB7D5" fill-rule="nonzero"/>
    <path d="M248.46 398.74c11.8-4 21.86-9.34 28.46-14.62l11.45 12.6c-5.46 6.8-18.1 14.46-33.84 19.83-15.74 5.37-30.43 7-38.9 5l1.37-17c8.45.15 19.66-1.79 31.46-5.81z" fill="#00B8CC" fill-rule="nonzero"/>
    <path d="M264.66 370.64l12.26 13.48c-6.6 5.28-16.66 10.6-28.46 14.62s-23 6-31.46 5.82l1.46-18.17a118 118 0 0046.2-15.75z" fill="#FFB7D5" fill-rule="nonzero"/>
    <path d="M236.31 363.12a119.12 119.12 0 0015.57-6.53l12.78 14.05a118 118 0 01-46.2 15.75l1.54-18.92a120.51 120.51 0 0016.31-4.35z" fill="#00B8CC" fill-rule="nonzero"/>
    <path d="M220 367.47l3.41-42.2 28.48 31.32a119.12 119.12 0 01-15.57 6.53 120.51 120.51 0 01-16.32 4.35z" fill="#FFB7D5" fill-rule="nonzero"/>
    <circle fill="#00B8CC" fill-rule="nonzero" cx="221" cy="318.23" r="15.4"/>
    <circle fill="#F4E6D8" fill-rule="nonzero" cx="245.5" cy="533.5" r="12.5"/>
    <path d="M1029.13 598.85l2.57 5.75 15.4 34.51c47.4-5.86 138.27-22.22 160.9-63.11 31-56 10-202-32-255-35 38.49-89.12 28-110.82-4a76.44 76.44 0 01-12.18 2 73.16 73.16 0 01-19.2-.76 49.24 49.24 0 01-21-8.85c-7.91-5.95-10.8-12.39-10.8-12.39l-1.34-.19c-6.14.91-34.71 5.54-58.66 16.19-30.6 13.6-99 51-99 51-.9-3.14-3.61-27.87-6.78-57.5l-38.84 15-4.21 1.63-20.09 7.78-36.53 14.14C739.17 392.13 749 440.9 776 463c44 36 159-22 159-22l-15 109h137.22s-14.07 3.75-43 15.45l6.66 14.91 8.25 18.49z" fill="#FFB7D5" fill-rule="nonzero"/>
    <path d="M840 419c-25.405 0-46 20.595-46 46 0 2.39.184 4.778.55 7.14 26.22 7 62.26-1.22 91.28-11-2.006-23.821-21.924-42.136-45.83-42.14zM795 336a46.11 46.11 0 00-1.83-12.84l-20.09 7.78-36.53 14.14c.67 12.07 1.82 24.25 3.61 36.06A46 46 0 00795 336zM928 368a46 46 0 0042-64.71 196.44 196.44 0 00-28 9.71c-14.08 6.26-36.17 17.56-55.92 27.94A46 46 0 00928 368z" fill="#00B8CC" fill-rule="nonzero"/>
    <circle fill="#00B8CC" fill-rule="nonzero" cx="1040" cy="427" r="46"/>
    <path d="M1055.906 414.999a4.001 4.001 0 01-3.906-4.043 4.001 4.001 0 013.993-3.956 4.072 4.072 0 014.006 4.146 4.001 4.001 0 01-4.093 3.853zm-33 33a4 4 0 01.095-7.999 4.075 4.075 0 013.998 4.14 4.001 4.001 0 01-4.093 3.859zm7.779-14.378a11.56 11.56 0 01-1.78-6.181c-.1-6.146 4.785-11.214 10.925-11.333a10.59 10.59 0 015.953 1.844l4.217-4.374a16.33 16.33 0 00-10.183-3.577c-9.455.169-16.985 7.98-16.814 17.447a17.753 17.753 0 003.453 10.553l4.229-4.38zm17.647-12.244a11.535 11.535 0 011.782 6.18c.101 6.149-4.796 11.218-10.942 11.328a10.579 10.579 0 01-5.953-1.844l-4.219 4.375a16.364 16.364 0 0010.172 3.584 17.126 17.126 0 0012.024-5.237 17.149 17.149 0 004.801-12.21 17.738 17.738 0 00-3.451-10.553l-4.214 4.377z" fill="#FFF"/>
    <path d="M950 500a45.79 45.79 0 00-24 6.79L920 550h75.81c.12-1.32.19-2.65.19-4 0-25.405-20.595-46-46-46zM1115.08 345.38c0 .87-.08 1.74-.08 2.62.008 20.988 14.221 39.31 34.548 44.535 20.328 5.225 41.614-3.972 51.742-22.355-7.07-19.83-15.62-37-25.29-49.18-17.65 19.41-40.16 26.36-60.92 24.38zM1158 540c.006 24.174 18.723 44.22 42.84 45.88A52.83 52.83 0 001208 576c10.2-18.42 14.77-46.59 14.81-78a46 46 0 00-64.81 42zM1061 586a45.83 45.83 0 00-31.87 12.85l2.57 5.75 15.4 34.51a601.45 601.45 0 0059.77-10.34c-1.695-24.086-21.725-42.761-45.87-42.77z" fill="#00B8CC" fill-rule="nonzero"/>
    <path d="M1138.5 521.5c-26.88 9.16-63.13 20.3-85.5 27.5M1110.01 424.3l9.49 103.2" stroke="#F5EBDC" stroke-width="4" stroke-linecap="round"/>
    <path d="M913.31 676.62c3.28-10.13 10.27-30.94 16.41-44.25M949.25 640.74c-13.94 30-22.12 64.2-25.15 78.38M968.78 650.5c-9 20.76-16.88 49.1-21.3 66.54" stroke="#30242A" stroke-width="4" stroke-linecap="round"/>
    <path d="M938.23 405.45l-5.44 36.3" stroke="#F5EBDC" stroke-width="4" stroke-linecap="round"/>
    <path d="M1171 223c-30.56-27.5-67.27-19.84-67.27-19.84 1.39-16.74 4.18-60-32.09-86.5s-82.32-12.55-99.06 8.37c-6.82 8.53-10.17 20.08-12.12 32.65 11.14 1.88 27.47-1.95 27.47-1.95 22.32 25.11 46 30.69 46 30.69 15.35-16.74 43.25-16.74 47.44 7 4.63 26.25-27.91 33.48-27.91 33.48s-6.9 37.41 4.5 75.12a55.25 55.25 0 007.18 15c21.7 32 75.83 42.5 110.82 4a70.739 70.739 0 004.81-6.68c10.13-15.65 29.54-55.96-9.77-91.34z" fill="#30242A" fill-rule="nonzero"/>
    <path d="M1005.92 273.3a89.68 89.68 0 0018.58-7.8" stroke="#30242A" stroke-width="4" stroke-linecap="round"/>
    <path d="M1105.28 202.87c-.76 7.63-1.78 17.13-2.78 24.63" stroke="#000" stroke-width="4" stroke-linecap="round"/>
    <path d="M1049.38 204.45l12.45-6.92M978.62 236.91c2.29 1.43 10.86 2.54 14.34-4.05" stroke="#30242A" stroke-width="4" stroke-linecap="round"/>
    <circle fill="#30242A" fill-rule="nonzero" cx="1001.16" cy="201.65" r="4.15"/>
    <path d="M978.11 211.76c-.64 2.76-1.17 5.77-.73 6.8a6.07 6.07 0 002.84 2.84" stroke="#30242A" stroke-width="4" stroke-linecap="round"/>
    <ellipse stroke="#000" stroke-width="4" stroke-linecap="round" transform="rotate(-76.95 958.926 195.964)" cx="958.926" cy="195.964" rx="20" ry="18"/>
    <ellipse stroke="#000" stroke-width="4" stroke-linecap="round" transform="rotate(-76.95 1002.93 202.961)" cx="1002.931" cy="202.961" rx="20" ry="18"/>
    <path d="M977.5 198.5l7 1" stroke="#000" stroke-width="4" stroke-linecap="round"/>
    <path d="M779.5 184.5s19 16 21 20c0 0-31 32-7 71" stroke="#30242A" stroke-width="4" stroke-linecap="round"/>
    <rect fill="#30242A" fill-rule="nonzero" transform="rotate(31.457 798.788 200.55)" x="790.816" y="47.447" width="15.943" height="306.207" rx="7.972"/>
    <path d="M895.09 16.57l17.22-13.78a8.8 8.8 0 0114.15 8.52L922.33 33a8.8 8.8 0 003.81 9l18.42 12.12a8.8 8.8 0 01-3.73 16.09L919 73a8.81 8.81 0 00-7.39 6.41l-5.83 21.26a8.81 8.81 0 01-16.46 1.42l-9.39-20a8.8 8.8 0 00-8.38-5l-22 1A8.8 8.8 0 01843 62.87l16.07-15.1a8.81 8.81 0 002.21-9.53l-7.78-20.63A8.81 8.81 0 01866 6.78l19.33 10.63a8.82 8.82 0 009.76-.84z" fill="#EC4A29" fill-rule="nonzero"/>
    <path d="M792 179c-7-6-20.45-9.89-27-6-11.06 6.57-8.34 19.33-8.34 19.33s-18-2.8-17.78 15.64c0 0-14.49 6.34-8.15 20.83 0 0-12.54 3.17-6.58 18.61C729 260 740.19 266.59 747 270c6 3 15.2-1.33 12-13 0 0 7 2 11-2 5.52-5.52 3-16 3-16s7 2 12-2c6.1-4.88 3-14 3-14a12.44 12.44 0 0010-8c4-10-11-22-11-22l5-14z" fill="#A15842" fill-rule="nonzero"/>
    <path d="M730 229.37A242.51 242.51 0 00759 259M739 207.88a206.29 206.29 0 0035.06 33.79M755 193.17a146.45 146.45 0 0033.69 32.07M779.5 184.5s9.37 7.89 15.64 14" stroke="#30242A" stroke-width="4" stroke-linecap="round"/>
    <path d="M1014.45 94.72l-5.28 5.81-3.51 3.86c-2.23 7.8 14 20.23 36.57 27.93 22.57 7.7 43 7.77 46 .23l-.42-5.2-.63-7.83c-8.48 2-23.17.39-38.91-5-15.74-5.39-28.35-13-33.82-19.8z" fill="#FFBE21" fill-rule="nonzero"/>
    <path d="M1054.37 96.74c-11.8-4-21.86-9.34-28.46-14.62l-11.46 12.6c5.47 6.8 18.11 14.46 33.84 19.83 15.73 5.37 30.43 7 38.91 5l-1.37-17c-8.45.15-19.66-1.79-31.46-5.81z" fill="#007D81" fill-rule="nonzero"/>
    <path d="M1038.17 68.64l-12.26 13.48c6.6 5.28 16.66 10.6 28.46 14.62s23 6 31.46 5.82l-1.47-18.17a117.93 117.93 0 01-46.19-15.75z" fill="#FFBE21" fill-rule="nonzero"/>
    <path d="M1066.52 61.12a119.27 119.27 0 01-15.58-6.53l-12.77 14a117.93 117.93 0 0046.19 15.75l-1.53-18.92a120.78 120.78 0 01-16.31-4.3z" fill="#007D81" fill-rule="nonzero"/>
    <path d="M1082.83 65.47l-3.41-42.2-28.48 31.32a119.27 119.27 0 0015.58 6.53 120.78 120.78 0 0016.31 4.35z" fill="#FFBE21" fill-rule="nonzero"/>
    <circle fill="#007D81" fill-rule="nonzero" cx="1081.82" cy="16.23" r="15.4"/>
  </g>
</svg>
